<svg xmlns="http://www.w3.org/2000/svg" xmlns:xlink="http://www.w3.org/1999/xlink" contentStyleType="text/css" height="2079px" preserveAspectRatio="none" style="width:675px;height:2079px;background:#FFFFFF;" version="1.1" viewBox="0 0 675 2079" width="675px" zoomAndPan="magnify"><defs/><g><!--cluster Authentication System--><g id="cluster_Authentication System"><rect fill="none" height="655" rx="2.5" ry="2.5" style="stroke:#181818;stroke-width:1.0;" width="218.82" x="214.84" y="812.08"/><text fill="#000000" font-family="sans-serif" font-size="14" font-weight="bold" lengthAdjust="spacing" textLength="180.4277" x="234.0361" y="827.0751">Authentication System</text></g><!--cluster Course Management System--><g id="cluster_Course Management System"><rect fill="none" height="292" rx="2.5" ry="2.5" style="stroke:#181818;stroke-width:1.0;" width="435.35" x="234.02" y="80.08"/><text fill="#000000" font-family="sans-serif" font-size="14" font-weight="bold" lengthAdjust="spacing" textLength="225.709" x="338.8405" y="95.0751">Course Management System</text></g><!--cluster Class Management System--><g id="cluster_Class Management System"><rect fill="none" height="298" rx="2.5" ry="2.5" style="stroke:#181818;stroke-width:1.0;" width="460.46" x="207.52" y="443.08"/><text fill="#000000" font-family="sans-serif" font-size="14" font-weight="bold" lengthAdjust="spacing" textLength="212.3037" x="331.5981" y="458.0751">Class Management System</text></g><!--cluster Class Enrollment System--><g id="cluster_Class Enrollment System"><rect fill="none" height="535" rx="2.5" ry="2.5" style="stroke:#181818;stroke-width:1.0;" width="254.45" x="197.02" y="1538.08"/><text fill="#000000" font-family="sans-serif" font-size="14" font-weight="bold" lengthAdjust="spacing" textLength="195.6445" x="226.4227" y="1553.0751">Class Enrollment System</text></g><g id="elem_UC_Login"><ellipse cx="324.2541" cy="1364.0757" fill="#F1F1F1" rx="38.4641" ry="14.5557" style="stroke:#181818;stroke-width:0.5;"/><text fill="#000000" font-family="sans-serif" font-size="14" lengthAdjust="spacing" textLength="38.0146" x="303.38" y="1367.5306">Login</text></g><g id="elem_UC_RegisterStudent"><ellipse cx="324.2544" cy="936.0829" fill="#F1F1F1" rx="79.7144" ry="18.3429" style="stroke:#181818;stroke-width:0.5;"/><text fill="#000000" font-family="sans-serif" font-size="14" lengthAdjust="spacing" textLength="117.8311" x="263.5641" y="939.4951">Register Student</text></g><g id="elem_UC_RegisterAdmin"><ellipse cx="324.2526" cy="865.0825" fill="#F1F1F1" rx="75.6126" ry="17.5225" style="stroke:#181818;stroke-width:0.5;"/><text fill="#000000" font-family="sans-serif" font-size="14" lengthAdjust="spacing" textLength="107.584" x="267.4606" y="868.8301">Register Admin</text></g><g id="elem_UC_ToggleStudentLogin"><ellipse cx="324.2503" cy="1217.0821" fill="#F1F1F1" rx="93.4103" ry="21.0821" style="stroke:#181818;stroke-width:0.5;"/><text fill="#000000" font-family="sans-serif" font-size="14" lengthAdjust="spacing" textLength="149.4199" x="249.5403" y="1219.9287">Toggle Student Login</text></g><g id="elem_UC_RefreshToken"><ellipse cx="324.2452" cy="1144.081" fill="#F1F1F1" rx="73.0552" ry="17.011" style="stroke:#181818;stroke-width:0.5;"/><text fill="#000000" font-family="sans-serif" font-size="14" lengthAdjust="spacing" textLength="100.9668" x="270.7618" y="1147.8286">Refresh Token</text></g><g id="elem_UC_ViewMyInfo"><ellipse cx="324.2455" cy="1294.0771" fill="#F1F1F1" rx="91.0355" ry="20.6071" style="stroke:#181818;stroke-width:0.5;"/><text fill="#000000" font-family="sans-serif" font-size="14" lengthAdjust="spacing" textLength="144.0811" x="252.205" y="1296.9238">View My Information</text></g><g id="elem_UC_ChangePassword"><ellipse cx="324.2528" cy="1432.0846" fill="#F1F1F1" rx="82.4228" ry="18.8846" style="stroke:#181818;stroke-width:0.5;"/><text fill="#000000" font-family="sans-serif" font-size="14" lengthAdjust="spacing" textLength="124.3184" x="261.3028" y="1435.1958">Change Password</text></g><g id="elem_UC_DeleteStudent"><ellipse cx="324.254" cy="1075.0848" fill="#F1F1F1" rx="74.824" ry="17.3648" style="stroke:#181818;stroke-width:0.5;"/><text fill="#000000" font-family="sans-serif" font-size="14" lengthAdjust="spacing" textLength="105.5605" x="268.4738" y="1078.8324">Delete Student</text></g><g id="elem_UC_DeleteAdmin"><ellipse cx="324.2517" cy="1006.0843" fill="#F1F1F1" rx="70.9217" ry="16.5843" style="stroke:#181818;stroke-width:0.5;"/><text fill="#000000" font-family="sans-serif" font-size="14" lengthAdjust="spacing" textLength="95.3135" x="273.595" y="1009.8319">Delete Admin</text></g><g id="elem_UC_CreateCourse"><ellipse cx="324.2451" cy="270.079" fill="#F1F1F1" rx="72.7451" ry="16.949" style="stroke:#181818;stroke-width:0.5;"/><text fill="#000000" font-family="sans-serif" font-size="14" lengthAdjust="spacing" textLength="100.1533" x="271.1685" y="273.8266">Create Course</text></g><g id="elem_UC_UpdateCourse"><ellipse cx="324.2511" cy="201.0762" fill="#F1F1F1" rx="74.2311" ry="17.2462" style="stroke:#181818;stroke-width:0.5;"/><text fill="#000000" font-family="sans-serif" font-size="14" lengthAdjust="spacing" textLength="104.0293" x="269.2364" y="204.8238">Update Course</text></g><g id="elem_UC_DeleteCourse"><ellipse cx="324.2509" cy="339.0762" fill="#F1F1F1" rx="72.4309" ry="16.8862" style="stroke:#181818;stroke-width:0.5;"/><text fill="#000000" font-family="sans-serif" font-size="14" lengthAdjust="spacing" textLength="99.3262" x="271.5878" y="342.8237">Delete Course</text></g><g id="elem_UC_SearchCourse"><ellipse cx="324.2479" cy="132.0796" fill="#F1F1F1" rx="73.3479" ry="17.0696" style="stroke:#181818;stroke-width:0.5;"/><text fill="#000000" font-family="sans-serif" font-size="14" lengthAdjust="spacing" textLength="101.7324" x="270.3817" y="135.8271">Search Course</text></g><g id="elem_UC_ViewAllCourses"><ellipse cx="574.4181" cy="133.0796" fill="#F1F1F1" rx="78.9481" ry="18.1896" style="stroke:#181818;stroke-width:0.5;"/><text fill="#000000" font-family="sans-serif" font-size="14" lengthAdjust="spacing" textLength="115.958" x="514.3672" y="136.577">View All Courses</text></g><g id="elem_UC_CreateClass"><ellipse cx="324.249" cy="642.0758" fill="#F1F1F1" rx="68.279" ry="16.0558" style="stroke:#181818;stroke-width:0.5;"/><text fill="#000000" font-family="sans-serif" font-size="14" lengthAdjust="spacing" textLength="88.1084" x="277.1948" y="645.8234">Create Class</text></g><g id="elem_UC_UpdateClass"><ellipse cx="324.2495" cy="575.0779" fill="#F1F1F1" rx="69.6895" ry="16.3379" style="stroke:#181818;stroke-width:0.5;"/><text fill="#000000" font-family="sans-serif" font-size="14" lengthAdjust="spacing" textLength="91.9844" x="275.2573" y="578.8255">Update Class</text></g><g id="elem_UC_DeleteClass"><ellipse cx="324.2515" cy="709.0763" fill="#F1F1F1" rx="67.9815" ry="15.9963" style="stroke:#181818;stroke-width:0.5;"/><text fill="#000000" font-family="sans-serif" font-size="14" lengthAdjust="spacing" textLength="87.2813" x="277.6109" y="712.8239">Delete Class</text></g><g id="elem_UC_ViewClassesByCourse"><ellipse cx="324.2517" cy="501.0763" fill="#F1F1F1" rx="100.7317" ry="22.5463" style="stroke:#181818;stroke-width:0.5;"/><text fill="#000000" font-family="sans-serif" font-size="14" lengthAdjust="spacing" textLength="165.6689" x="241.4172" y="503.923">View Classes by Course</text></g><g id="elem_UC_ViewAllClasses"><ellipse cx="574.4237" cy="707.0827" fill="#F1F1F1" rx="77.5637" ry="17.9127" style="stroke:#181818;stroke-width:0.5;"/><text fill="#000000" font-family="sans-serif" font-size="14" lengthAdjust="spacing" textLength="112.5264" x="515.528" y="710.734">View All Classes</text></g><g id="elem_UC_AddToCart"><ellipse cx="324.2454" cy="2038.0811" fill="#F1F1F1" rx="81.1054" ry="18.6211" style="stroke:#181818;stroke-width:0.5;"/><text fill="#000000" font-family="sans-serif" font-size="14" lengthAdjust="spacing" textLength="121.1875" x="262.3945" y="2041.3387">Add Class to Cart</text></g><g id="elem_UC_RemoveFromCart"><ellipse cx="324.2454" cy="1961.0811" fill="#F1F1F1" rx="102.7554" ry="22.9511" style="stroke:#181818;stroke-width:0.5;"/><text fill="#000000" font-family="sans-serif" font-size="14" lengthAdjust="spacing" textLength="170.1123" x="239.1893" y="1963.9278">Remove Class from Cart</text></g><g id="elem_UC_RegisterClass"><ellipse cx="324.2465" cy="1886.0833" fill="#F1F1F1" rx="72.5165" ry="16.9033" style="stroke:#181818;stroke-width:0.5;"/><text fill="#000000" font-family="sans-serif" font-size="14" lengthAdjust="spacing" textLength="99.5518" x="271.4706" y="1889.8309">Register Class</text></g><g id="elem_UC_RegisterAllClassesInCart"><ellipse cx="324.2458" cy="1809.0752" fill="#F1F1F1" rx="111.2258" ry="24.6452" style="stroke:#181818;stroke-width:0.5;"/><text fill="#000000" font-family="sans-serif" font-size="14" lengthAdjust="spacing" textLength="188.5283" x="229.9817" y="1811.9218">Register All Classes in Cart</text></g><g id="elem_UC_DropClass"><ellipse cx="324.2451" cy="1734.083" fill="#F1F1F1" rx="63.8151" ry="15.163" style="stroke:#181818;stroke-width:0.5;"/><text fill="#000000" font-family="sans-serif" font-size="14" lengthAdjust="spacing" textLength="75.2705" x="283.6099" y="1737.8306">Drop Class</text></g><g id="elem_UC_ViewCart"><ellipse cx="324.2495" cy="1669.0751" fill="#F1F1F1" rx="60.4995" ry="14.7751" style="stroke:#181818;stroke-width:0.5;"/><text fill="#000000" font-family="sans-serif" font-size="14" lengthAdjust="spacing" textLength="67.5801" x="287.4594" y="1672.8226">View Cart</text></g><g id="elem_UC_ViewEnrollmentHistory"><ellipse cx="324.2476" cy="1596.0795" fill="#F1F1F1" rx="102.0976" ry="22.8195" style="stroke:#181818;stroke-width:0.5;"/><text fill="#000000" font-family="sans-serif" font-size="14" lengthAdjust="spacing" textLength="168.6699" x="239.9126" y="1598.9262">View Enrollment History</text></g><!--entity user--><g id="elem_user"><ellipse cx="21.9551" cy="1201.43" fill="#F1F1F1" rx="8" ry="8" style="stroke:#181818;stroke-width:0.5;"/><path d="M21.9551,1209.43 L21.9551,1236.43 M8.9551,1217.43 L34.9551,1217.43 M21.9551,1236.43 L8.9551,1251.43 M21.9551,1236.43 L34.9551,1251.43 " fill="none" style="stroke:#181818;stroke-width:0.5;"/><text fill="#000000" font-family="sans-serif" font-size="14" lengthAdjust="spacing" textLength="31.9102" x="6" y="1265.9251">User</text></g><!--entity admin--><g id="elem_admin"><ellipse cx="125.4621" cy="792.43" fill="#F1F1F1" rx="8" ry="8" style="stroke:#181818;stroke-width:0.5;"/><path d="M125.4621,800.43 L125.4621,827.43 M112.4621,808.43 L138.4621,808.43 M125.4621,827.43 L112.4621,842.43 M125.4621,827.43 L138.4621,842.43 " fill="none" style="stroke:#181818;stroke-width:0.5;"/><text fill="#000000" font-family="sans-serif" font-size="14" lengthAdjust="spacing" textLength="44.8643" x="103.03" y="856.9251">Admin</text></g><!--entity student--><g id="elem_student"><ellipse cx="125.4657" cy="1566.43" fill="#F1F1F1" rx="8" ry="8" style="stroke:#181818;stroke-width:0.5;"/><path d="M125.4657,1574.43 L125.4657,1601.43 M112.4657,1582.43 L138.4657,1582.43 M125.4657,1601.43 L112.4657,1616.43 M125.4657,1601.43 L138.4657,1616.43 " fill="none" style="stroke:#181818;stroke-width:0.5;"/><text fill="#000000" font-family="sans-serif" font-size="14" lengthAdjust="spacing" textLength="55.1113" x="97.91" y="1630.9251">Student</text></g><!--reverse link user to admin--><g id="link_user_admin"><path d="M36.8377,1175.1305 C56.2177,1097.0805 95.59,938.42 114.94,860.46 " fill="none" id="user-backto-admin" style="stroke:#181818;stroke-width:1.0;"/><polygon fill="none" points="32.5,1192.6,42.6609,1176.5764,31.0145,1173.6846,32.5,1192.6" style="stroke:#181818;stroke-width:1.0;"/></g><!--reverse link user to student--><g id="link_user_student"><path d="M38.4517,1286.7922 C57.9417,1356.8922 94.28,1487.55 113.78,1557.67 " fill="none" id="user-backto-student" style="stroke:#181818;stroke-width:1.0;"/><polygon fill="none" points="33.63,1269.45,32.6709,1288.3994,44.2324,1285.185,33.63,1269.45" style="stroke:#181818;stroke-width:1.0;"/></g><!--link student to UC_Login--><g id="link_student_UC_Login"><path d="M127.59,1557.82 C131.06,1512.63 143.8,1438.28 189.02,1396.08 C214.94,1371.89 249.7579,1365.2773 279.5879,1363.7473 " fill="none" id="student-to-UC_Login" style="stroke:#181818;stroke-width:1.0;"/><polygon fill="#181818" points="285.58,1363.44,276.3869,1359.9063,280.5866,1363.6961,276.7967,1367.8958,285.58,1363.44" style="stroke:#181818;stroke-width:1.0;"/></g><!--link admin to UC_Login--><g id="link_admin_UC_Login"><path d="M125.73,860.69 C124.52,967.34 126.97,1262.66 189.02,1332.08 C212.97,1358.87 248.9415,1365.1149 279.5815,1365.8049 " fill="none" id="admin-to-UC_Login" style="stroke:#181818;stroke-width:1.0;"/><polygon fill="#181818" points="285.58,1365.94,276.6723,1361.7384,280.5813,1365.8274,276.4922,1369.7364,285.58,1365.94" style="stroke:#181818;stroke-width:1.0;"/></g><!--link admin to UC_RegisterStudent--><g id="link_admin_UC_RegisterStudent"><path d="M148.13,858.27 C158.73,873.19 172.74,889.45 189.02,900.08 C208.72,912.94 227.0434,919.8393 249.4134,925.1693 " fill="none" id="admin-to-UC_RegisterStudent" style="stroke:#181818;stroke-width:1.0;"/><polygon fill="#181818" points="255.25,926.56,247.4222,920.5829,250.3862,925.4011,245.568,928.3651,255.25,926.56" style="stroke:#181818;stroke-width:1.0;"/></g><!--link admin to UC_RegisterAdmin--><g id="link_admin_UC_RegisterAdmin"><path d="M148.28,826.85 C177,833.12 222.6381,843.1002 262.3481,851.7702 " fill="none" id="admin-to-UC_RegisterAdmin" style="stroke:#181818;stroke-width:1.0;"/><polygon fill="#181818" points="268.21,853.05,260.2704,847.2223,263.3251,851.9835,258.5639,855.0382,268.21,853.05" style="stroke:#181818;stroke-width:1.0;"/></g><!--link admin to UC_ToggleStudentLogin--><g id="link_admin_UC_ToggleStudentLogin"><path d="M128.17,860.69 C132.58,943.14 147.13,1132.66 189.02,1179.08 C202,1193.46 214.2456,1200.8046 232.8256,1206.5246 " fill="none" id="admin-to-UC_ToggleStudentLogin" style="stroke:#181818;stroke-width:1.0;"/><polygon fill="#181818" points="238.56,1208.29,231.1353,1201.819,233.7813,1206.8188,228.7815,1209.4649,238.56,1208.29" style="stroke:#181818;stroke-width:1.0;"/></g><!--link admin to UC_DeleteStudent--><g id="link_admin_UC_DeleteStudent"><path d="M126.54,860.54 C128.78,909.19 140.13,992.37 189.02,1040.08 C205.83,1056.48 223.4327,1064.2051 246.0627,1069.0451 " fill="none" id="admin-to-UC_DeleteStudent" style="stroke:#181818;stroke-width:1.0;"/><polygon fill="#181818" points="251.93,1070.3,243.9656,1064.5062,247.0406,1069.2543,242.2925,1072.3292,251.93,1070.3" style="stroke:#181818;stroke-width:1.0;"/></g><!--link admin to UC_DeleteAdmin--><g id="link_admin_UC_DeleteAdmin"><path d="M132.6,860.69 C140.06,894.86 156.02,943.6 189.02,972.08 C207.5,988.02 226.5345,995.4935 249.8945,1000.1235 " fill="none" id="admin-to-UC_DeleteAdmin" style="stroke:#181818;stroke-width:1.0;"/><polygon fill="#181818" points="255.78,1001.29,247.7294,995.6165,250.8754,1000.3179,246.1741,1003.4639,255.78,1001.29" style="stroke:#181818;stroke-width:1.0;"/></g><!--link admin to UC_ViewMyInfo--><g id="link_admin_UC_ViewMyInfo"><path d="M126.82,860.59 C128.48,955.57 137.75,1197.51 189.02,1256.08 C202.18,1271.11 215.0467,1278.7071 234.2367,1284.3871 " fill="none" id="admin-to-UC_ViewMyInfo" style="stroke:#181818;stroke-width:1.0;"/><polygon fill="#181818" points="239.99,1286.09,232.4954,1279.7001,235.1956,1284.6709,230.2248,1287.3712,239.99,1286.09" style="stroke:#181818;stroke-width:1.0;"/></g><!--link student to UC_ViewMyInfo--><g id="link_student_UC_ViewMyInfo"><path d="M130.78,1557.64 C138.86,1492.46 158.28,1364.18 189.02,1332.08 C202.93,1317.56 216.1618,1310.1461 235.4918,1304.4861 " fill="none" id="student-to-UC_ViewMyInfo" style="stroke:#181818;stroke-width:1.0;"/><polygon fill="#181818" points="241.25,1302.8,231.4886,1301.4903,236.4515,1304.2051,233.7367,1309.1679,241.25,1302.8" style="stroke:#181818;stroke-width:1.0;"/></g><!--link student to UC_ChangePassword--><g id="link_student_UC_ChangePassword"><path d="M138.47,1557.5 C148.29,1531.76 164.6,1498.93 189.02,1478.08 C208.6,1461.36 228.7928,1452.285 252.6628,1445.435 " fill="none" id="student-to-UC_ChangePassword" style="stroke:#181818;stroke-width:1.0;"/><polygon fill="#181818" points="258.43,1443.78,248.6758,1442.4177,253.624,1445.1592,250.8825,1450.1074,258.43,1443.78" style="stroke:#181818;stroke-width:1.0;"/></g><!--link student to UC_ViewEnrollmentHistory--><g id="link_student_UC_ViewEnrollmentHistory"><path d="M153.41,1596.08 C171.52,1596.08 190.63,1596.08 215.99,1596.08 " fill="none" id="student-to-UC_ViewEnrollmentHistory" style="stroke:#181818;stroke-width:1.0;"/><polygon fill="#181818" points="221.99,1596.08,212.99,1592.08,216.99,1596.08,212.99,1600.08,221.99,1596.08" style="stroke:#181818;stroke-width:1.0;"/></g><!--link student to UC_ViewCart--><g id="link_student_UC_ViewCart"><path d="M153.41,1616.05 C164.07,1623.21 176.7,1630.8 189.02,1636.08 C215.82,1647.57 241.5409,1654.3814 267.3409,1659.6414 " fill="none" id="student-to-UC_ViewCart" style="stroke:#181818;stroke-width:1.0;"/><polygon fill="#181818" points="273.22,1660.84,265.2005,1655.1227,268.3208,1659.8412,263.6023,1662.9615,273.22,1660.84" style="stroke:#181818;stroke-width:1.0;"/></g><!--link admin to UC_CreateCourse--><g id="link_admin_UC_CreateCourse"><path d="M125.74,783.78 C124.5,676.51 126.79,376.32 189.02,305.08 C204.87,286.94 222.924,278.8041 246.234,274.1941 " fill="none" id="admin-to-UC_CreateCourse" style="stroke:#181818;stroke-width:1.0;"/><polygon fill="#181818" points="252.12,273.03,242.515,270.8521,247.215,274.0001,244.0671,278.7001,252.12,273.03" style="stroke:#181818;stroke-width:1.0;"/></g><!--link admin to UC_UpdateCourse--><g id="link_admin_UC_UpdateCourse"><path d="M128.06,783.72 C133.54,660.07 153.26,277.6 189.02,236.08 C204.5,218.11 222.0602,209.9749 245.0402,205.3049 " fill="none" id="admin-to-UC_UpdateCourse" style="stroke:#181818;stroke-width:1.0;"/><polygon fill="#181818" points="250.92,204.11,241.3037,201.9825,246.0202,205.1057,242.8969,209.8222,250.92,204.11" style="stroke:#181818;stroke-width:1.0;"/></g><!--link admin to UC_DeleteCourse--><g id="link_admin_UC_DeleteCourse"><path d="M126.89,783.6 C128.73,688.08 138.38,443.47 189.02,383.08 C205.96,362.88 226.5047,353.2862 251.4147,347.3262 " fill="none" id="admin-to-UC_DeleteCourse" style="stroke:#181818;stroke-width:1.0;"/><polygon fill="#181818" points="257.25,345.93,247.5663,344.134,252.3872,347.0935,249.4278,351.9144,257.25,345.93" style="stroke:#181818;stroke-width:1.0;"/></g><!--link admin to UC_CreateClass--><g id="link_admin_UC_CreateClass"><path d="M133.12,783.5 C140.86,750.28 156.94,703.49 189.02,676.08 C208.21,659.68 228.3434,652.1291 252.3734,647.6091 " fill="none" id="admin-to-UC_CreateClass" style="stroke:#181818;stroke-width:1.0;"/><polygon fill="#181818" points="258.27,646.5,248.6857,644.2326,253.3562,647.4243,250.1645,652.0948,258.27,646.5" style="stroke:#181818;stroke-width:1.0;"/></g><!--link admin to UC_UpdateClass--><g id="link_admin_UC_UpdateClass"><path d="M126.68,783.79 C129.09,735.84 140.66,654.39 189.02,608.08 C206.79,591.07 225.9362,583.46 249.6062,579.17 " fill="none" id="admin-to-UC_UpdateClass" style="stroke:#181818;stroke-width:1.0;"/><polygon fill="#181818" points="255.51,578.1,245.9409,575.7692,250.5902,578.9917,247.3676,583.6409,255.51,578.1" style="stroke:#181818;stroke-width:1.0;"/></g><!--link admin to UC_DeleteClass--><g id="link_admin_UC_DeleteClass"><path d="M148.18,791.05 C159.08,777.45 173.3,762.29 189.02,752.08 C213.55,736.16 238.6045,727.2063 264.5645,720.6163 " fill="none" id="admin-to-UC_DeleteClass" style="stroke:#181818;stroke-width:1.0;"/><polygon fill="#181818" points="270.38,719.14,260.6725,717.4774,265.5337,720.3702,262.6409,725.2315,270.38,719.14" style="stroke:#181818;stroke-width:1.0;"/></g><!--link admin to UC_ViewAllCourses--><g id="link_admin_UC_ViewAllCourses"><path d="M126.82,783.46 C128.53,640.04 138.11,143.79 189.02,97.08 C288.3,6 463.2718,77.4801 536.1818,113.5401 " fill="none" id="admin-to-UC_ViewAllCourses" style="stroke:#181818;stroke-width:1.0;"/><polygon fill="#181818" points="541.56,116.2,535.266,108.6246,537.0782,113.9834,531.7195,115.7955,541.56,116.2" style="stroke:#181818;stroke-width:1.0;"/></g><!--link student to UC_ViewAllCourses--><g id="link_student_UC_ViewAllCourses"><path d="M128,1557.55 C135.86,1361.63 171.98,484.32 189.02,462.08 C266,361.65 364.57,456.78 459.47,373.08 C529.7,311.15 558.9403,202.3863 568.5603,157.5863 " fill="none" id="student-to-UC_ViewAllCourses" style="stroke:#181818;stroke-width:1.0;"/><polygon fill="#181818" points="569.82,151.72,564.0196,159.6796,568.7703,156.6086,571.8413,161.3592,569.82,151.72" style="stroke:#181818;stroke-width:1.0;"/></g><!--link admin to UC_ViewAllClasses--><g id="link_admin_UC_ViewAllClasses"><path d="M148.01,817.39 C201.17,805.72 342.76,773.99 459.47,742.08 C482.13,735.89 501.3754,730.097 522.1454,723.577 " fill="none" id="admin-to-UC_ViewAllClasses" style="stroke:#181818;stroke-width:1.0;"/><polygon fill="#181818" points="527.87,721.78,518.0851,720.6592,523.0995,723.2775,520.4812,728.2919,527.87,721.78" style="stroke:#181818;stroke-width:1.0;"/></g><!--link student to UC_ViewAllClasses--><g id="link_student_UC_ViewAllClasses"><path d="M153.39,1577.35 C164.15,1570.38 176.86,1562.8 189.02,1557.08 C303.67,1503.19 377.94,1564.04 459.47,1467.08 C558.22,1349.65 571.4135,835.7592 573.0935,731.3692 " fill="none" id="student-to-UC_ViewAllClasses" style="stroke:#181818;stroke-width:1.0;"/><polygon fill="#181818" points="573.19,725.37,569.0457,734.3045,573.1095,730.3694,577.0447,734.4332,573.19,725.37" style="stroke:#181818;stroke-width:1.0;"/></g><!--link student to UC_AddToCart--><g id="link_student_UC_AddToCart"><path d="M127.24,1634.7 C129.86,1725.18 141.12,1947.28 189.02,2001.08 C203.73,2017.6 219.2472,2025.5825 240.6072,2030.8925 " fill="none" id="student-to-UC_AddToCart" style="stroke:#181818;stroke-width:1.0;"/><polygon fill="#181818" points="246.43,2032.34,238.6608,2026.2869,241.5777,2031.1337,236.7308,2034.0506,246.43,2032.34" style="stroke:#181818;stroke-width:1.0;"/></g><!--link student to UC_RemoveFromCart--><g id="link_student_UC_RemoveFromCart"><path d="M129,1634.54 C134.8,1711.02 151.52,1878.39 189.02,1920.08 C201.41,1933.85 212.6055,1941.0716 230.1855,1947.2116 " fill="none" id="student-to-UC_RemoveFromCart" style="stroke:#181818;stroke-width:1.0;"/><polygon fill="#181818" points="235.85,1949.19,228.6722,1942.4461,231.1296,1947.5414,226.0344,1949.9987,235.85,1949.19" style="stroke:#181818;stroke-width:1.0;"/></g><!--link student to UC_RegisterClass--><g id="link_student_UC_RegisterClass"><path d="M131.06,1634.54 C139.41,1698 159.02,1820.64 189.02,1851.08 C205.93,1868.23 224.2305,1876.1233 247.4205,1880.8433 " fill="none" id="student-to-UC_RegisterClass" style="stroke:#181818;stroke-width:1.0;"/><polygon fill="#181818" points="253.3,1882.04,245.2786,1876.3253,248.4005,1881.0428,243.683,1884.1646,253.3,1882.04" style="stroke:#181818;stroke-width:1.0;"/></g><!--link student to UC_RegisterAllClassesInCart--><g id="link_student_UC_RegisterAllClassesInCart"><path d="M130.64,1634.38 C136.85,1673.01 152.08,1731.85 189.02,1767.08 C201.83,1779.3 212.5149,1785.8996 229.3349,1792.0496 " fill="none" id="student-to-UC_RegisterAllClassesInCart" style="stroke:#181818;stroke-width:1.0;"/><polygon fill="#181818" points="234.97,1794.11,227.8909,1787.2626,230.2741,1792.393,225.1437,1794.7761,234.97,1794.11" style="stroke:#181818;stroke-width:1.0;"/></g><!--link student to UC_DropClass--><g id="link_student_UC_DropClass"><path d="M140.55,1634.65 C150.7,1657.23 166.6,1684.48 189.02,1701.08 C210.33,1716.86 232.3499,1724.1254 257.1999,1728.4754 " fill="none" id="student-to-UC_DropClass" style="stroke:#181818;stroke-width:1.0;"/><polygon fill="#181818" points="263.11,1729.51,254.9345,1724.0181,258.1849,1728.6479,253.5551,1731.8982,263.11,1729.51" style="stroke:#181818;stroke-width:1.0;"/></g><!--link UC_SearchCourse to UC_ViewAllCourses--><g id="link_UC_SearchCourse_UC_ViewAllCourses"><path d="M398.03,132.37 C428.5,132.5 457.97,132.6168 489.01,132.7368 " fill="none" id="UC_SearchCourse-to-UC_ViewAllCourses" style="stroke:#181818;stroke-width:1.0;"/><polygon fill="#181818" points="495.01,132.76,486.0255,128.7252,490.01,132.7407,485.9946,136.7252,495.01,132.76" style="stroke:#181818;stroke-width:1.0;"/></g><!--link UC_ViewClassesByCourse to UC_ViewAllClasses--><g id="link_UC_ViewClassesByCourse_UC_ViewAllClasses"><path d="M404.29,515.02 C423.55,520.92 443.26,529.27 459.47,541.08 C513.87,580.69 548.4791,649.0957 563.4991,683.3257 " fill="none" id="UC_ViewClassesByCourse-to-UC_ViewAllClasses" style="stroke:#181818;stroke-width:1.0;"/><polygon fill="#181818" points="565.91,688.82,565.9565,678.9713,563.9009,684.2414,558.6308,682.1858,565.91,688.82" style="stroke:#181818;stroke-width:1.0;"/></g><!--SRC=[bLLTYzim47pthrZoddzG2gclfGSDb2QvrwBQYcrgIuUat67Q_lVgox5MMXzSdfIPsPKq6qr6VZLW9AYXwmsqW-AD6QIeM6EaWjr5SxK3fk5c5mjuQAT1U9IvrGAVpAtbmdX2XtLLkNvCT2EtPJVJMsnecDi1JhCsVDh1dmhin_PlcBQgRxABpI_rJ_y5ypzuDzX21UbsLhhW4TueMe-Ub7WG5vnbvyuScm4wLE0YHPxmghZkuIn_ysGl3teCovy6_Wh76Hx5LQh9UxCKEUeuEmANrBsrbCDtflMhLEqY3_22uf87FdB3SzC2IbeM2v1X0Gjs_KEphULDsQeZ4wpZaxDiOxoruios3VhxmJqOC2o_FBUbF82KF1uQomD8oK-SgQRFv06av7vIXt6C1JeTauKZcZipsdcymnWdptnn46rBAewkbEB5b5GSFId5_euUvnf-pPatZetaf_bjYu8gjoYWf4MVXPBZ-9P5XxODVLrWrKpTVyQME4i7v0znaY_nud1LSa95WVrYOQeovWKoRK49szQ0MUyEWyWsZ75pz-5Hb5i_AFcSpSeYcvDA-llX5FsyBF7sgps3L7DQjBAHTFDnWGyV_kxtCUJNx_TiZmlOxp-kOUtL6C9O7jGa6J86KKJi8Xvd6K4HFPE0pM-JK1cJnInHLnfAYFoey75G3Y86HHvnDuf9quDgLX9fAfH69H57N2TXwTBuz3TA8vlJwylEYEpr5cpwKZV8uXrcklNTLTdVmiQzwO2aR_eV]--></g></svg>